<svg width="77" height="63" viewBox="0 0 77 63" fill="none" xmlns="http://www.w3.org/2000/svg">
<path d="M32.9508 9.77014C31.0508 3.56014 23.2808 -1.57986 16.0208 0.450145C14.8761 0.777 13.7774 1.2474 12.7508 1.85014C5.75081 5.91014 0.000811928 15.7901 0.000811928 23.9301C-0.0141622 25.2847 0.178066 26.6336 0.570819 27.9301C2.47082 34.1401 10.2308 39.2501 17.4908 37.2201C18.6339 36.8975 19.7298 36.4269 20.7508 35.8202C27.7508 31.7602 33.5008 21.8801 33.5008 13.7501C33.5166 12.4035 33.3312 11.062 32.9508 9.77014V9.77014Z" fill="#455A64"/>
<path d="M20.7609 35.8498C27.7609 31.7898 33.5109 21.9098 33.5109 13.7798C33.5109 5.64984 27.8009 2.34983 20.7609 6.40983C13.7209 10.4698 8.02087 20.4098 8.02087 28.4898C8.02087 36.5698 13.7209 39.9198 20.7609 35.8498Z" fill="#37474F"/>
<path d="M20.7608 15.4306C23.4708 13.8706 25.6708 15.1306 25.6708 18.2606C25.5789 19.9625 25.0862 21.6185 24.233 23.0939C23.3798 24.5692 22.1901 25.8222 20.7608 26.7506C18.0608 28.3106 15.8608 27.0506 15.8608 23.9206C15.9532 22.22 16.445 20.5651 17.2963 19.0901C18.1476 17.615 19.3346 16.3613 20.7608 15.4306V15.4306Z" fill="#455A64"/>
<path d="M22.4409 20.1203C22.4091 20.702 22.2416 21.2683 21.9515 21.7736C21.6615 22.279 21.2572 22.7094 20.7709 23.0303C20.6086 23.1446 20.4211 23.218 20.2243 23.2441C20.0275 23.2702 19.8274 23.2483 19.6409 23.1803L19.5209 23.1103C19.369 22.9831 19.2498 22.8214 19.1733 22.6387C19.0967 22.4561 19.065 22.2577 19.0809 22.0603C19.1149 21.4767 19.2855 20.9093 19.5791 20.4038C19.8726 19.8984 20.2809 19.469 20.7709 19.1503C20.9313 19.036 21.1171 18.9626 21.3123 18.9365C21.5075 18.9103 21.7061 18.9322 21.8909 19.0003L22.0109 19.0703C22.1622 19.1974 22.2805 19.3593 22.3554 19.5422C22.4303 19.7251 22.4596 19.9235 22.4409 20.1203V20.1203Z" fill="#37474F"/>
<path d="M49.3709 35.6703C49.3404 36.2521 49.1722 36.8185 48.8802 37.3226C48.5881 37.8268 48.1805 38.2544 47.6909 38.5703C47.4765 38.7115 47.2274 38.7911 46.9709 38.8003C46.7734 38.7968 46.5803 38.7416 46.4109 38.6403L19.6409 23.1803L19.5209 23.1103C19.369 22.9831 19.2498 22.8214 19.1733 22.6387C19.0967 22.4561 19.065 22.2577 19.0809 22.0603C19.1149 21.4767 19.2855 20.9093 19.5791 20.4038C19.8726 19.8984 20.2809 19.469 20.7709 19.1503C20.9313 19.036 21.1171 18.9626 21.3123 18.9365C21.5075 18.9103 21.7061 18.9322 21.8909 19.0003L22.0109 19.0703L48.7809 34.5203C48.9804 34.6338 49.1425 34.803 49.2473 35.0073C49.3521 35.2116 49.395 35.442 49.3709 35.6703V35.6703Z" fill="#0466C8"/>
<path d="M75.6408 34.4105C73.7308 28.2005 65.9708 23.0605 58.7108 25.1005C57.5655 25.4211 56.4664 25.8883 55.4408 26.4905C48.4408 30.5505 42.7008 40.4405 42.7008 48.5705C42.6858 49.9251 42.878 51.274 43.2708 52.5705V52.5705C45.1708 58.7905 52.9308 63.9005 60.1908 61.8605C61.3328 61.5397 62.4286 61.0726 63.4508 60.4705C70.4508 56.4005 76.2008 46.5205 76.2008 38.3905C76.2184 37.043 76.0295 35.7008 75.6408 34.4105Z" fill="#455A64"/>
<path d="M63.5108 60.5005C70.5108 56.4305 76.2608 46.5505 76.2608 38.4205C76.2608 30.2905 70.5108 26.9905 63.5108 31.0505C56.5108 35.1105 50.7108 45.0005 50.7108 53.1805C50.7108 61.3605 56.4208 64.5605 63.5108 60.5005Z" fill="#37474F"/>
<path d="M63.5108 40.0704C66.2208 38.5104 68.4108 39.7804 68.4108 42.9004C68.3208 44.6015 67.83 46.2573 66.9785 47.7327C66.1269 49.2082 64.9388 50.4614 63.5108 51.3904C60.8008 52.9604 58.6108 51.6904 58.6108 48.5604C58.7024 46.8596 59.1939 45.2045 60.0453 43.7293C60.8967 42.2541 62.084 41.0006 63.5108 40.0704V40.0704Z" fill="#455A64"/>
<path d="M65.1409 44.7599C65.1088 45.3427 64.94 45.9099 64.6482 46.4154C64.3563 46.9209 63.9496 47.3507 63.4609 47.6699C63.2998 47.7866 63.1121 47.8615 62.9149 47.8876C62.7176 47.9138 62.5169 47.8906 62.3309 47.8199L62.2109 47.7499C62.0595 47.6228 61.9413 47.4608 61.8664 47.2779C61.7915 47.095 61.7621 46.8966 61.7809 46.6999C61.813 46.117 61.9818 45.5499 62.2736 45.0444C62.5655 44.5389 62.9722 44.1091 63.4609 43.7899C63.6213 43.6756 63.8071 43.6023 64.0023 43.5761C64.1975 43.55 64.3961 43.5719 64.5809 43.6399L64.7009 43.7099C64.8554 43.8348 64.9766 43.9961 65.0533 44.1794C65.1301 44.3627 65.1602 44.5621 65.1409 44.7599V44.7599Z" fill="#37474F"/>
<path d="M69.1909 47.1099C69.1623 47.6911 68.9961 48.2571 68.7057 48.7613C68.4153 49.2655 68.0092 49.6935 67.5209 50.0099C67.303 50.1515 67.0506 50.231 66.7909 50.2399C66.5935 50.2364 66.4004 50.1812 66.2309 50.0799L62.3309 47.8199L62.2109 47.7499C62.0595 47.6228 61.9413 47.4608 61.8664 47.2779C61.7915 47.095 61.7621 46.8966 61.7809 46.6999C61.813 46.117 61.9818 45.5499 62.2736 45.0444C62.5655 44.5389 62.9722 44.1091 63.4609 43.7899C63.6213 43.6756 63.8071 43.6023 64.0023 43.5761C64.1975 43.55 64.3961 43.5719 64.5809 43.6399L64.7009 43.7099L68.6009 45.9599C68.8004 46.0734 68.9626 46.2427 69.0674 46.4469C69.1722 46.6512 69.2151 46.8816 69.1909 47.1099V47.1099Z" fill="#0466C8"/>
<path opacity="0.2" d="M69.1908 47.1005C69.1606 47.6826 68.9937 48.2495 68.7035 48.755C68.4134 49.2606 68.0082 49.6907 67.5208 50.0105C67.3585 50.1248 67.171 50.1982 66.9742 50.2243C66.7775 50.2504 66.5773 50.2285 66.3908 50.1605L66.2708 50.0905C66.1214 49.9618 66.0045 49.7996 65.9298 49.6171C65.8551 49.4346 65.8246 49.237 65.8408 49.0405C65.8737 48.4564 66.0427 47.8882 66.3344 47.3812C66.6261 46.8742 67.0324 46.4425 67.5208 46.1205C67.6805 46.0046 67.867 45.931 68.0628 45.9065C68.2586 45.882 68.4575 45.9075 68.6408 45.9805L68.7608 46.0505C68.9135 46.1764 69.0327 46.3383 69.1077 46.5215C69.1828 46.7047 69.2113 46.9036 69.1908 47.1005V47.1005Z" fill="black"/>
</svg>
